<svg xmlns="http://www.w3.org/2000/svg" width="98" height="85" viewBox="0 0 98 85">
    <g fill="none" fill-rule="evenodd" stroke="#8D7EFF" stroke-linecap="round" stroke-linejoin="round" stroke-width="2">
        <path d="M30.894 12.002a7.5 7.5 0 0 0 0 14.999h18.105L36.196 14.2a7.474 7.474 0 0 0-5.302-2.197zM67.104 12.002a7.5 7.5 0 0 1 0 14.999H48.999l12.802-12.803a7.478 7.478 0 0 1 5.303-2.196z"/>
        <path d="M42.607 6.274a6.915 6.915 0 0 1 9.037-3.746 6.917 6.917 0 0 1 3.745 9.04L48.997 27l-6.39-15.43a6.895 6.895 0 0 1 0-5.297zM21.078 81.998c-2.805 0-5.078-2.247-5.078-5.017V39h66v37.984C82 79.754 79.727 82 76.923 82l-55.845-.003zM14.001 27.001C11.239 27.001 9 29.208 9 31.928v2.462C9 37.11 11.239 39 14.001 39h69.998C86.761 39 89 37.109 89 34.39v-2.462c0-2.72-2.239-4.927-5.001-4.927H14.001zM48.999 27.001v55-55z"/>
    </g>
</svg>
