<svg xmlns="http://www.w3.org/2000/svg" width="98" height="85" viewBox="0 0 98 85">
    <path fill="#8D7EFF" fill-rule="nonzero" d="M94.624 26.983c0-7.207-2.807-13.984-7.903-19.08C81.624 2.806 74.85 0 67.642 0c-6.9 0-13.399 2.577-18.413 7.268C44.236 2.668 37.799.146 30.97.146c-7.207 0-13.983 2.807-19.08 7.903-10.52 10.52-10.52 27.64 0 38.161l6.87 6.872a6.149 6.149 0 0 0-1.056 3.46c0 1.651.642 3.205 1.811 4.372a6.14 6.14 0 0 0 5.781 1.645 6.136 6.136 0 0 0 1.646 5.78 6.135 6.135 0 0 0 5.785 1.644 6.184 6.184 0 0 0 1.64 5.783 6.146 6.146 0 0 0 5.784 1.642 6.175 6.175 0 0 0 1.641 5.78A6.14 6.14 0 0 0 46.166 85a6.125 6.125 0 0 0 3.554-1.128 6.14 6.14 0 0 0 3.398 1.016 6.18 6.18 0 0 0 6.156-6.755c.78.348 1.634.53 2.514.53a6.148 6.148 0 0 0 4.374-1.811 6.186 6.186 0 0 0 1.649-5.772c.455.104.925.159 1.402.159 1.65 0 3.204-.644 4.374-1.81a6.151 6.151 0 0 0 1.81-4.374c0-.871-.177-1.713-.516-2.486a6.23 6.23 0 0 0 4.91-1.79 6.15 6.15 0 0 0 1.81-4.373c0-1.423-.48-2.771-1.358-3.864l6.48-6.479c5.094-5.095 7.9-11.871 7.9-19.08zm-67.956 32.34c-.29.29-.623.51-.977.695a3.882 3.882 0 0 1-1.805.458 3.906 3.906 0 0 1-2.78-1.152 3.907 3.907 0 0 1-1.153-2.782c0-.641.17-1.253.458-1.807.184-.352.405-.685.695-.973l.756-.758 6.051-6.052a3.907 3.907 0 0 1 2.78-1.151c1.051 0 2.04.41 2.783 1.151a3.94 3.94 0 0 1 .002 5.564l-6.053 6.053-.757.754zm7.426 7.426a3.94 3.94 0 0 1-.979.696 3.92 3.92 0 0 1-1.804.456 3.9 3.9 0 0 1-2.78-1.152c-1.242-1.241-1.46-3.105-.695-4.586.18-.351.4-.686.694-.979l.755-.755 8.49-8.488a3.904 3.904 0 0 1 2.781-1.153c1.05 0 2.038.41 2.78 1.153a3.902 3.902 0 0 1 1.152 2.78c0 1.05-.41 2.04-1.151 2.783l-8.49 8.49-.753.755zm7.426 7.424c-.291.292-.627.514-.982.698a3.882 3.882 0 0 1-1.8.457 3.908 3.908 0 0 1-2.783-1.152c-1.24-1.239-1.458-3.102-.694-4.585.18-.35.4-.687.694-.98l.755-.754 5.562-5.56 1.885-1.885.333-.333a3.905 3.905 0 0 1 2.78-1.152c1.052 0 2.04.41 2.782 1.151a3.941 3.941 0 0 1 0 5.565l-.334.331-1.885 1.885-5.561 5.564-.752.75zm8.175 6.675l-.751.75c-.291.292-.628.515-.982.7a3.915 3.915 0 0 1-1.799.453 3.908 3.908 0 0 1-2.782-1.152c-1.24-1.24-1.46-3.1-.696-4.581.18-.353.4-.69.696-.983l.752-.752 5.563-5.561.12-.12a3.871 3.871 0 0 1 2.415-1.116c.123-.013.242-.036.365-.036 1.051 0 2.04.409 2.784 1.151.859.86 1.218 2.02 1.113 3.148a3.886 3.886 0 0 1-1.113 2.416l-.122.121-5.563 5.562zm6.203.64a3.905 3.905 0 0 1-4.433.775l5.207-5.207a3.932 3.932 0 0 1-.774 4.432zm22.299-22.3a3.913 3.913 0 0 1-2.782 1.152c-1.05 0-2.038-.41-2.78-1.152L57.68 44.235a1.125 1.125 0 0 0-1.59-.001l-.272.269a1.132 1.132 0 0 0-.002 1.593l16.178 16.175a3.913 3.913 0 0 1 1.152 2.783 3.91 3.91 0 0 1-1.152 2.782 3.913 3.913 0 0 1-2.782 1.152c-1.05 0-2.039-.41-2.78-1.152L50.253 51.369c-.212-.21-.498-.62-.797-.62h-.001c-.299 0-.586.411-.796.624l-.27.416c-.436.44-.435 1.223.003 1.661l16.175 16.213c1.533 1.531 1.533 4.047 0 5.581a3.922 3.922 0 0 1-2.782 1.16 3.894 3.894 0 0 1-2.779-1.148l-.648-.647a6.189 6.189 0 0 0-1.389-6.6 6.145 6.145 0 0 0-4.374-1.812c-.042 0-.085.006-.126.008 1.539-2.394 1.265-5.625-.828-7.72a6.142 6.142 0 0 0-4.371-1.81 6.24 6.24 0 0 0-.875.067c.223-.642.344-1.32.344-2.02a6.145 6.145 0 0 0-1.811-4.373 6.143 6.143 0 0 0-4.373-1.812 6.13 6.13 0 0 0-3.68 1.223 6.167 6.167 0 0 0-1.808-4.4 6.15 6.15 0 0 0-4.373-1.811 6.146 6.146 0 0 0-4.373 1.81l-6.051 6.051-6.79-6.792C3.837 34.975 3.837 19.283 13.48 9.64c4.672-4.672 10.883-7.245 17.488-7.245A24.548 24.548 0 0 1 47.616 8.85L27.41 29.057c-2.411 2.411-2.42 6.327-.018 8.728l1.071 1.07a6.106 6.106 0 0 0 4.351 1.789 6.14 6.14 0 0 0 4.372-1.81l13.11-13.11 27.901 27.902a3.906 3.906 0 0 1 1.152 2.78c0 1.05-.41 2.04-1.152 2.782zm.586-8.37L51.182 23.246a1.109 1.109 0 0 0-.443-.261 1.122 1.122 0 0 0-.353-.069c-.287 0-.575.11-.795.33l-.887.886-13.11 13.11a3.906 3.906 0 0 1-2.78 1.152c-1.066 0-2.02-.39-2.76-1.13l-1.07-1.07c-1.524-1.524-1.515-4.012.02-5.546l19.125-19.13 2.024-2.024c.073-.074.15-.142.223-.213 4.647-4.534 10.762-7.032 17.266-7.032 6.606 0 12.818 2.573 17.488 7.245 4.671 4.671 7.243 10.882 7.243 17.488 0 6.607-2.572 12.817-7.243 17.49l-6.347 6.346z"/>
</svg>
